# xmcd
#
# Track frame offsets:
#	150
#	10875
#	22875
#	37950
#	46800
#	57675
#	69450
#	84300
#	97050
#	112350
#	124200
#	133200
#	147450
#	159225
#	171075
#	179400
#	197325
#	209400
#
# Disc length: 2964 seconds
#
# Revision: 0
# Processed by: cddbd v1.5.2PL0 Copyright (c) Steve Scherf et al.
# Submitted via: EasyCDDAExtractor 15.2.5.1
#
DISCID=030b9212
DTITLE=The Singing Kettles - 18 Of Our Best
DYEAR=1993
DGENRE=Country
TTITLE0=Little Green Valley
TTITLE1=Thank God
TTITLE2=Wedding Bells
TTITLE3=Family Man
TTITLE4=One Small Photograph
TTITLE5=Your Cheatin' Heart
TTITLE6=Ebony Eyes
TTITLE7=An Old Log Cabin For Sale
TTITLE8=Gumtrees By The Roadway
TTITLE9=Judy (Jodie)
TTITLE10=Sweet Lies
TTITLE11=Little Boy Lost
TTITLE12=Ballad Of A Teenage Queen
TTITLE13=Call Of The Bellbird
TTITLE14=A Fool Never Learns
TTITLE15=Toy Telephone
TTITLE16=Candy Kisses
TTITLE17=Harry The Breaker
EXTD=
EXTT0=
EXTT1=
EXTT2=
EXTT3=
EXTT4=
EXTT5=
EXTT6=
EXTT7=
EXTT8=
EXTT9=
EXTT10=
EXTT11=
EXTT12=
EXTT13=
EXTT14=
EXTT15=
EXTT16=
EXTT17=
PLAYORDER=
